<svg width="297mm" height="210mm" version="1.1" viewBox="0 0 297 210" xmlns="http://www.w3.org/2000/svg">
 <g transform="translate(0,-87)">
  <path d="m-1.5718 202.38c0-68.543 0.11656-95.817 0.40949-95.817 2.3244 0 26.989 7.5055 40.034 12.183 23.52 8.4324 40.726 15.948 85.045 37.148 9.4588 4.5246 20.855 9.9176 25.324 11.984 33.575 15.526 56.227 23.038 78.619 26.072 5.3417 0.72376 7.9723 0.84686 18.332 0.85782 16.23 0.0172 18.597-0.30889 39.769-5.478 6.2812-1.5336 11.516-2.6931 11.632-2.5767 0.11641 0.11641 0.32054 25.239 0.4536 55.828l0.24196 55.616h-299.86z" fill="#fff" stroke-width=".37798"/>
 </g>
</svg>
